{"title":"Daughters Of Mother India (2015) 720p WebRip x264 AAC MSubs -DDR","uid":15834043,"size":598545907,"categoryP":"video","categoryS":"hd___movies","magnet":"?xt=urn:btih:30877a0e14f7c14b9e2d121f7b9dc0669f8e406d&amp;dn=Daughters+Of+Mother+India+%282015%29+720p+WebRip+x264+AAC+MSubs+-DDR&amp;tr=udp%3A%2F%2Ftracker.leechers-paradise.org%3A6969&amp;tr=udp%3A%2F%2Fzer0day.ch%3A1337&amp;tr=udp%3A%2F%2Fopen.demonii.com%3A1337&amp;tr=udp%3A%2F%2Ftracker.coppersurfer.tk%3A6969&amp;tr=udp%3A%2F%2Fexodus.desync.com%3A6969","seeders":16,"leechers":32,"uploader":"SaM","files":3,"time":1473951805,"description":"720p WebRip x264\r\n\r\nHindi AAC 2.0 Audio\r\n\r\n\r\n\r\nEnglish &amp; French Subtitles\r\n\r\n\r\nAWARDS\r\nNational Film Awards, India 2015\r\nWon\r\nSilver Lotus Award Best Film on Social Issues\r\nVibha Bakshi (producer/director)\r\nV2 Film and Design (production company)\r\n\r\n\r\n\r\n\r\n\r\n{ SCREENSHOTS }\r\n \nhttp://extraimago.com/image/wIvY \nhttp://extraimago.com/image/wIvC \nhttp://extraimago.com/image/wIvB \nhttp://extraimago.com/image/wIv4 \nhttp://extraimago.com/image/wIve \nhttp://extraimago.com/image/wIvZ \nhttp://extraimago.com/image/wIvK \nhttp://extraimago.com/image/wIvJ \nhttp://extraimago.com/image/wIv0 \nhttp://extraimago.com/image/wIvz \nhttp://extraimago.com/image/wIvU \nhttp://extraimago.com/image/wIvM \nhttp://extraimago.com/image/wIv9\r\n\r\nSpecs:\r\nSource: Netflix HD Rip @ DDR\r\n\r\nFormat : Matroska\r\nFile size : 555 MiB\r\nDuration : 44 min\r\nOverall bit rate : 1 728 kb/s\r\nEncoded date : UTC 2016-09-15 03:04:05\r\nWriting application : mkvmerge v9.2.0 ('Photograph') 64bit\r\nWriting library : libebml v1.3.3 + libmatroska v1.4.4\r\n\r\nVideo\r\nID : 1\r\nFormat : AVC\r\nFormat/Info : Advanced Video Codec\r\nFormat profile :   \r\nFormat settings, CABAC : Yes\r\nFormat settings, ReFrames : 9 frames\r\nCodec ID : V_MPEG4/ISO/AVC\r\nDuration : 44 min\r\nBit rate : 1 504 kb/s\r\nWidth : 1 280 pixels\r\nHeight : 720 pixels\r\nDisplay aspect ratio : 16:9\r\nFrame rate mode : Constant\r\nFrame rate : 30.000 FPS\r\nColor space : YUV\r\nChroma subsampling : 4:2:0\r\nBit depth : 8 bits\r\nScan type : Progressive\r\nBits/(Pixel*Frame) : 0.054\r\nStream size : 483 MiB (87%)\r\nLanguage : English\r\nDefault : Yes\r\nForced : No\r\nColor range : Limited\r\nColor primaries : BT.709\r\nTransfer characteristics : BT.709\r\nMatrix coefficients : BT.709\r\n\r\nAudio\r\nID : 2\r\nFormat : AAC\r\nFormat/Info : Advanced Audio Codec\r\nFormat profile : LC\r\nCodec ID : A_AAC\r\nDuration : 44 min\r\nBit rate : 221 kb/s\r\nChannel(s) : 2 channels\r\nChannel positions : Front: L R\r\nSampling rate : 48.0 kHz\r\nFrame rate : 46.875 FPS (1024 spf)\r\nCompression mode : Lossy\r\nDelay relative to video : 13 ms\r\nStream size : 71.1 MiB (13%)\r\nLanguage : Hindi\r\nDefault : Yes\r\nForced : No","torrent":{"xt":"urn:btih:30877a0e14f7c14b9e2d121f7b9dc0669f8e406d","amp;dn":"Daughters+Of+Mother+India+%282015%29+720p+WebRip+x264+AAC+MSubs+-DDR","amp;tr":["udp%3A%2F%2Ftracker.leechers-paradise.org%3A6969","udp%3A%2F%2Fzer0day.ch%3A1337","udp%3A%2F%2Fopen.demonii.com%3A1337","udp%3A%2F%2Ftracker.coppersurfer.tk%3A6969","udp%3A%2F%2Fexodus.desync.com%3A6969"],"infoHash":"30877a0e14f7c14b9e2d121f7b9dc0669f8e406d","infoHashBuffer":{"type":"Buffer","data":[48,135,122,14,20,247,193,75,158,45,18,31,123,157,192,102,159,142,64,109]},"announce":[],"urlList":[]}}